<svg width="23" height="23" viewBox="0 0 23 23" fill="none" xmlns="http://www.w3.org/2000/svg">
<path d="M4.3125 3.47246C4.3125 3.14453 4.57754 2.875 4.90996 2.875C5.06719 2.875 5.21992 2.93789 5.33223 3.0502L6.00156 3.71953C5.83984 4.12383 5.75 4.56855 5.75 5.03125C5.75 5.9252 6.07344 6.73828 6.6125 7.36719C6.37441 7.78047 6.43281 8.31504 6.7832 8.66992C7.20547 9.09219 7.88828 9.09219 8.30605 8.66992L12.9824 3.99805C13.4047 3.57578 13.4047 2.89297 12.9824 2.4752C12.6275 2.12031 12.093 2.06641 11.6797 2.30449C11.0508 1.76094 10.2377 1.4375 9.34375 1.4375C8.88105 1.4375 8.43633 1.52734 8.03203 1.68457L7.3627 1.01523C6.71133 0.363867 5.82637 0 4.90996 0C2.9918 0 1.4375 1.5543 1.4375 3.47246V11.5C0.642383 11.5 0 12.1424 0 12.9375C0 13.7326 0.642383 14.375 1.4375 14.375H21.5625C22.3576 14.375 23 13.7326 23 12.9375C23 12.1424 22.3576 11.5 21.5625 11.5H4.3125V3.47246ZM1.4375 15.8125V16.5312C1.4375 17.807 1.99453 18.957 2.875 19.7477V21.5625C2.875 22.3576 3.51738 23 4.3125 23C5.10762 23 5.75 22.3576 5.75 21.5625V20.8438H17.25V21.5625C17.25 22.3576 17.8924 23 18.6875 23C19.4826 23 20.125 22.3576 20.125 21.5625V19.7477C21.0055 18.957 21.5625 17.8115 21.5625 16.5312V15.8125H1.4375Z" fill="#036280"/>
</svg>
