<svg width="40" height="38" viewBox="0 0 40 38" fill="none" xmlns="http://www.w3.org/2000/svg">
<path fill-rule="evenodd" clip-rule="evenodd" d="M14.7143 2.27143C14.7143 2.03693 14.6681 1.80472 14.5784 1.58807C14.4886 1.37142 14.3571 1.17456 14.1913 1.00874C14.0254 0.842922 13.8286 0.711388 13.6119 0.621647C13.3953 0.531907 13.1631 0.485718 12.9286 0.485718C12.6941 0.485718 12.4619 0.531907 12.2452 0.621647C12.0286 0.711388 11.8317 0.842922 11.6659 1.00874C11.5001 1.17456 11.3685 1.37142 11.2788 1.58807C11.189 1.80472 11.1429 2.03693 11.1429 2.27143V6.73715C11.1429 6.97165 11.189 7.20386 11.2788 7.42051C11.3685 7.63716 11.5001 7.83402 11.6659 7.99984C11.8317 8.16566 12.0286 8.29719 12.2452 8.38693C12.4619 8.47667 12.6941 8.52286 12.9286 8.52286C13.1631 8.52286 13.3953 8.47667 13.6119 8.38693C13.8286 8.29719 14.0254 8.16566 14.1913 7.99984C14.3571 7.83402 14.4886 7.63716 14.5784 7.42051C14.6681 7.20386 14.7143 6.97165 14.7143 6.73715V2.27143ZM6.40857 3.80857C7.39714 3.80857 8.19428 4.60858 8.19428 5.59429V10.06C8.19428 10.5336 8.00615 10.9878 7.67126 11.3227C7.33637 11.6576 6.88217 11.8457 6.40857 11.8457C5.93497 11.8457 5.48077 11.6576 5.14588 11.3227C4.81099 10.9878 4.62286 10.5336 4.62286 10.06V5.59429C4.62286 4.60858 5.42286 3.80857 6.40857 3.80857ZM19.4457 3.80857C20.4314 3.80857 21.2314 4.60858 21.2314 5.59429V10.06C21.2314 10.5336 21.0433 10.9878 20.7084 11.3227C20.3735 11.6576 19.9193 11.8457 19.4457 11.8457C18.9721 11.8457 18.5179 11.6576 18.183 11.3227C17.8481 10.9878 17.66 10.5336 17.66 10.06V5.59429C17.66 4.60858 18.46 3.80857 19.4457 3.80857ZM35.6114 8.16858C34.9384 8.16802 34.2752 8.33091 33.679 8.64323C33.0828 8.95555 32.5713 9.40796 32.1886 9.9616C31.8058 10.5152 31.5632 11.1535 31.4816 11.8216C31.3999 12.4897 31.4818 13.1677 31.72 13.7971L28.6429 16.6371C26.9 15.8714 24.7914 15.9943 22.8943 16.9314C22.1849 17.3489 21.5432 17.872 20.9914 18.4829C18.5743 21.1371 18.4171 24.6257 19.9943 26.6714C20.1571 26.88 20.3371 27.08 20.54 27.2629C20.6788 27.3891 20.7914 27.5415 20.8714 27.7113C20.9513 27.881 20.997 28.0649 21.0059 28.2523C21.0148 28.4398 20.9867 28.6271 20.9232 28.8037C20.8596 28.9803 20.762 29.1426 20.6357 29.2814C20.5095 29.4203 20.3571 29.5329 20.1873 29.6128C20.0175 29.6927 19.8337 29.7385 19.6463 29.7474C19.4588 29.7562 19.2715 29.7281 19.0949 29.6646C18.9183 29.6011 18.756 29.5034 18.6171 29.3771C18.2955 29.0835 18 28.7622 17.7343 28.4171C15.1286 25.0457 15.7429 20.0057 18.8771 16.56L18.9571 16.4743C13.0343 14.7171 5.32 16.8 1.91428 23.5943C-0.708573 28.8343 0.285713 33.1229 1.19428 35.3114C1.82286 36.8314 3.31714 37.5143 4.68 37.5143H34.1171C35.2538 37.5143 36.3439 37.0628 37.1476 36.259C37.9513 35.4553 38.4029 34.3652 38.4029 33.2286V32.38C38.4029 30.4486 38.0857 28.6229 37.08 26.98C36.3143 25.7257 35.2029 24.6686 33.7086 23.76C33.2431 25.305 32.4366 26.7256 31.3486 27.9171C31.0936 28.1975 30.7377 28.3651 30.3591 28.3831C29.9806 28.401 29.6104 28.2678 29.33 28.0129C29.0496 27.7579 28.882 27.402 28.8641 27.0234C28.8461 26.6448 28.9793 26.2747 29.2343 25.9943C31.1371 23.9057 31.6371 21.3286 31.0057 19.3171L34.1914 16.3714C34.225 16.3403 34.2574 16.3079 34.2886 16.2743C34.8595 16.4637 35.4647 16.5269 36.0625 16.4596C36.6602 16.3923 37.2363 16.1961 37.7508 15.8845C38.2653 15.5729 38.7061 15.1534 39.0427 14.6548C39.3793 14.1563 39.6037 13.5907 39.7005 12.997C39.7972 12.4033 39.7639 11.7957 39.6029 11.2161C39.442 10.6365 39.1571 10.0987 38.7681 9.63994C38.379 9.18115 37.8951 8.81226 37.3496 8.55872C36.8041 8.30518 36.2101 8.17305 35.6086 8.17143L35.6114 8.16858Z" fill="#036280"/>
</svg>
