<svg width="40" height="40" viewBox="0 0 40 40" fill="none" xmlns="http://www.w3.org/2000/svg">
<path fill-rule="evenodd" clip-rule="evenodd" d="M2.24296 0.0686035C2.52436 0.0686035 2.80301 0.12403 3.06299 0.231719C3.32297 0.339407 3.5592 0.497249 3.75818 0.696232C3.95717 0.895214 4.11501 1.13144 4.2227 1.39142C4.33039 1.65141 4.38581 1.93006 4.38581 2.21146V9.35432C4.38589 10.3004 4.6544 11.2271 5.16015 12.0267C5.6659 12.8263 6.38813 13.466 7.24296 13.8715V2.21146C7.24296 1.64314 7.46872 1.0981 7.87058 0.696232C8.27245 0.294368 8.81749 0.0686035 9.38581 0.0686035C9.95413 0.0686035 10.4992 0.294368 10.901 0.696232C11.3029 1.0981 11.5287 1.64314 11.5287 2.21146V13.8715C12.3835 13.466 13.1057 12.8263 13.6115 12.0267C14.1172 11.2271 14.3857 10.3004 14.3858 9.35432V2.21146C14.3858 1.64314 14.6116 1.0981 15.0134 0.696232C15.4153 0.294368 15.9603 0.0686035 16.5287 0.0686035C17.097 0.0686035 17.642 0.294368 18.0439 0.696232C18.4458 1.0981 18.6715 1.64314 18.6715 2.21146V9.35432C18.6713 11.3173 18.049 13.2298 16.894 14.817C15.739 16.4042 14.1107 17.5846 12.243 18.1886V37.1429C12.243 37.9006 11.9419 38.6274 11.4061 39.1632C10.8703 39.699 10.1436 40 9.38581 40C8.62805 40 7.90133 39.699 7.36551 39.1632C6.82969 38.6274 6.52867 37.9006 6.52867 37.1429V18.1915C4.66044 17.5873 3.0318 16.4065 1.87675 14.8187C0.721699 13.2309 0.0996926 11.3178 0.100098 9.35432V2.21146C0.100098 1.64314 0.325862 1.0981 0.727726 0.696232C1.12959 0.294368 1.67463 0.0686035 2.24296 0.0686035ZM30.9572 0.0686035C25.8944 0.0686035 22.5544 5.00289 22.5544 10.0372C22.5544 14.0486 24.6744 17.9972 28.0972 19.4372V37.1429C28.0972 37.9006 28.3983 38.6274 28.9341 39.1632C29.4699 39.699 30.1966 40 30.9544 40C31.7121 40 32.4389 39.699 32.9747 39.1632C33.5105 38.6274 33.8115 37.9006 33.8115 37.1429V19.4343C37.2401 17.9972 39.3601 14.0486 39.3601 10.0343C39.3601 5.00289 36.0172 0.0686035 30.9572 0.0686035Z" fill="#036280"/>
</svg>
