<svg width="24" height="24" viewBox="0 0 24 24" fill="none" xmlns="http://www.w3.org/2000/svg">
<path d="M0.821718 0.821802C1.13426 0.509351 1.55811 0.333825 2.00005 0.333825C2.44199 0.333825 2.86584 0.509351 3.17838 0.821802L12.0001 9.64347L20.8217 0.821802C20.9755 0.662619 21.1594 0.535648 21.3627 0.4483C21.566 0.360951 21.7847 0.314974 22.006 0.313051C22.2273 0.311128 22.4468 0.353297 22.6516 0.437099C22.8565 0.5209 23.0426 0.644655 23.199 0.801143C23.3555 0.957631 23.4793 1.14372 23.5631 1.34855C23.6469 1.55337 23.6891 1.77284 23.6871 1.99414C23.6852 2.21544 23.6392 2.43414 23.5519 2.63748C23.4645 2.84082 23.3376 3.02472 23.1784 3.17847L14.3567 12.0001L23.1784 20.8218C23.482 21.1361 23.65 21.5571 23.6462 21.9941C23.6424 22.4311 23.4671 22.8492 23.1581 23.1582C22.8491 23.4672 22.431 23.6425 21.9941 23.6463C21.5571 23.6501 21.1361 23.4821 20.8217 23.1785L12.0001 14.3568L3.17838 23.1785C2.86405 23.4821 2.44304 23.6501 2.00605 23.6463C1.56905 23.6425 1.15103 23.4672 0.84202 23.1582C0.533007 22.8492 0.357725 22.4311 0.353927 21.9941C0.35013 21.5571 0.518121 21.1361 0.821718 20.8218L9.64338 12.0001L0.821718 3.17847C0.509266 2.86592 0.33374 2.44208 0.33374 2.00014C0.33374 1.5582 0.509266 1.13435 0.821718 0.821802Z" fill="black"/>
</svg>
