<svg width="40" height="40" viewBox="0 0 40 40" fill="none" xmlns="http://www.w3.org/2000/svg">
<path fill-rule="evenodd" clip-rule="evenodd" d="M4.28571 0C2.01714 0 0 1.73429 0 4.08571V17.3829C0 19.7371 2.01714 21.4686 4.28571 21.4686H5.94857V15.7143C5.94857 14.44 6.49143 13.2457 7.41429 12.3886C8.33628 11.5381 9.54568 11.0676 10.8 11.0714H29.2C30.4457 11.0714 31.6657 11.5314 32.5857 12.3857C33.5057 13.2457 34.0514 14.4429 34.0514 15.7143V21.4714H35.7143C37.9829 21.4714 40 19.7371 40 17.3857V4.08571C40 1.73429 37.9829 0 35.7143 0H4.28571ZM30.48 21.4714H9.52V15.7143C9.52 15.4714 9.62286 15.2114 9.84857 15C10.1098 14.766 10.4493 14.6385 10.8 14.6429H29.2C29.5497 14.6393 29.8881 14.7667 30.1486 15C30.3771 15.2114 30.48 15.4714 30.48 15.7143V21.4714ZM13.5714 27.8543C13.5714 27.286 13.3457 26.7409 12.9438 26.3391C12.5419 25.9372 11.9969 25.7114 11.4286 25.7114C10.8603 25.7114 10.3152 25.9372 9.91334 26.3391C9.51148 26.7409 9.28571 27.286 9.28571 27.8543V30.9971C9.28571 31.4897 9.09005 31.9621 8.74177 32.3103C8.39349 32.6586 7.92112 32.8543 7.42857 32.8543H7.14286C6.57454 32.8543 6.02949 33.0801 5.62763 33.4819C5.22576 33.8838 5 34.4288 5 34.9971C5 35.5655 5.22576 36.1105 5.62763 36.5124C6.02949 36.9142 6.57454 37.14 7.14286 37.14H7.42857C9.05776 37.14 10.6202 36.4928 11.7722 35.3408C12.9242 34.1888 13.5714 32.6263 13.5714 30.9971V27.8543ZM28.5714 25.7114C28.0031 25.7114 27.4581 25.9372 27.0562 26.3391C26.6543 26.7409 26.4286 27.286 26.4286 27.8543V30.9971C26.4286 32.6263 27.0758 34.1888 28.2278 35.3408C29.3798 36.4928 30.9422 37.14 32.5714 37.14H32.8571C33.4255 37.14 33.9705 36.9142 34.3724 36.5124C34.7742 36.1105 35 35.5655 35 34.9971C35 34.4288 34.7742 33.8838 34.3724 33.4819C33.9705 33.0801 33.4255 32.8543 32.8571 32.8543H32.5714C32.0789 32.8543 31.6065 32.6586 31.2582 32.3103C30.91 31.9621 30.7143 31.4897 30.7143 30.9971V27.8543C30.7143 27.286 30.4885 26.7409 30.0867 26.3391C29.6848 25.9372 29.1397 25.7114 28.5714 25.7114ZM22.1429 27.8543C22.1429 27.286 21.9171 26.7409 21.5152 26.3391C21.1134 25.9372 20.5683 25.7114 20 25.7114C19.4317 25.7114 18.8866 25.9372 18.4848 26.3391C18.0829 26.7409 17.8571 27.286 17.8571 27.8543V37.8543C17.8571 38.4226 18.0829 38.9677 18.4848 39.3695C18.8866 39.7714 19.4317 39.9971 20 39.9971C20.5683 39.9971 21.1134 39.7714 21.5152 39.3695C21.9171 38.9677 22.1429 38.4226 22.1429 37.8543V27.8543Z" fill="#036280"/>
</svg>
