<svg width="45" height="40" viewBox="0 0 45 40" fill="none" xmlns="http://www.w3.org/2000/svg">
<path d="M22.5 16.1538C24.3594 16.1538 25.9492 16.8309 27.2695 18.1851C28.5898 19.5393 29.25 21.1699 29.25 23.0769C29.25 24.984 28.5898 26.6146 27.2695 27.9688C25.9492 29.3229 24.3594 30 22.5 30C20.6406 30 19.0508 29.3229 17.7305 27.9688C16.4102 26.6146 15.75 24.984 15.75 23.0769C15.75 21.1699 16.4102 19.5393 17.7305 18.1851C19.0508 16.8309 20.6406 16.1538 22.5 16.1538ZM39 6.15385C40.6562 6.15385 42.0703 6.75481 43.2422 7.95673C44.4141 9.15865 45 10.609 45 12.3077V33.8462C45 35.5449 44.4141 36.9952 43.2422 38.1971C42.0703 39.399 40.6562 40 39 40H6C4.34375 40 2.92969 39.399 1.75781 38.1971C0.585938 36.9952 0 35.5449 0 33.8462V12.3077C0 10.609 0.585938 9.15865 1.75781 7.95673C2.92969 6.75481 4.34375 6.15385 6 6.15385H11.25L12.4453 2.88462C12.7422 2.09936 13.2852 1.42228 14.0742 0.853365C14.8633 0.284455 15.6719 0 16.5 0H28.5C29.3281 0 30.1367 0.284455 30.9258 0.853365C31.7148 1.42228 32.2578 2.09936 32.5547 2.88462L33.75 6.15385H39ZM22.5 33.8462C25.3906 33.8462 27.8633 32.7925 29.918 30.6851C31.9727 28.5777 33 26.0417 33 23.0769C33 20.1122 31.9727 17.5761 29.918 15.4688C27.8633 13.3614 25.3906 12.3077 22.5 12.3077C19.6094 12.3077 17.1367 13.3614 15.082 15.4688C13.0273 17.5761 12 20.1122 12 23.0769C12 26.0417 13.0273 28.5777 15.082 30.6851C17.1367 32.7925 19.6094 33.8462 22.5 33.8462Z" fill="#036280"/>
</svg>
