<svg width="24" height="23" viewBox="0 0 24 23" fill="none" xmlns="http://www.w3.org/2000/svg">
<path d="M10.4167 6.46875C10.4167 5.325 9.97768 4.2281 9.19628 3.41935C8.41488 2.6106 7.35507 2.15625 6.25 2.15625C5.14493 2.15625 4.08512 2.6106 3.30372 3.41935C2.52232 4.2281 2.08333 5.325 2.08333 6.46875C2.08333 7.6125 2.52232 8.7094 3.30372 9.51815C4.08512 10.3269 5.14493 10.7812 6.25 10.7812C7.35507 10.7812 8.41488 10.3269 9.19628 9.51815C9.97768 8.7094 10.4167 7.6125 10.4167 6.46875ZM12.3437 7.90625C11.7144 10.7857 9.22309 12.9375 6.25 12.9375C2.79948 12.9375 0 10.04 0 6.46875C0 2.89746 2.79948 0 6.25 0C9.22309 0 11.7144 2.15176 12.3437 5.03125H15.4601C15.842 4.59102 16.3976 4.3125 17.0139 4.3125H21.5278C22.6779 4.3125 23.6111 5.27832 23.6111 6.46875C23.6111 7.65918 22.6779 8.625 21.5278 8.625H17.0139C16.3976 8.625 15.842 8.34648 15.4601 7.90625H12.3437ZM6.25 3.59375C6.98671 3.59375 7.69325 3.89665 8.21419 4.43582C8.73512 4.97499 9.02778 5.70625 9.02778 6.46875C9.02778 7.23125 8.73512 7.96251 8.21419 8.50168C7.69325 9.04085 6.98671 9.34375 6.25 9.34375C5.51329 9.34375 4.80675 9.04085 4.28581 8.50168C3.76488 7.96251 3.47222 7.23125 3.47222 6.46875C3.47222 5.70625 3.76488 4.97499 4.28581 4.43582C4.80675 3.89665 5.51329 3.59375 6.25 3.59375ZM17.3611 10.7812C17.9384 10.7812 18.4028 11.2619 18.4028 11.8594V12.2188H22.5694C23.1467 12.2188 23.6111 12.6994 23.6111 13.2969C23.6111 13.8943 23.1467 14.375 22.5694 14.375H12.1528C11.5755 14.375 11.1111 13.8943 11.1111 13.2969C11.1111 12.6994 11.5755 12.2188 12.1528 12.2188H16.3194V11.8594C16.3194 11.2619 16.7839 10.7812 17.3611 10.7812ZM12.5 20.8438V15.8125H22.2222V20.8438C22.2222 22.0342 21.2891 23 20.1389 23H14.5833C13.4332 23 12.5 22.0342 12.5 20.8438ZM2.08333 14.375H7.63889C8.78906 14.375 9.72222 15.3408 9.72222 16.5312C9.72222 17.7217 8.78906 18.6875 7.63889 18.6875H6.94444C6.94444 19.4826 6.32378 20.125 5.55556 20.125H2.77778C2.00955 20.125 1.38889 19.4826 1.38889 18.6875V15.0938C1.38889 14.6984 1.70139 14.375 2.08333 14.375ZM7.63889 17.25C8.02083 17.25 8.33333 16.9266 8.33333 16.5312C8.33333 16.1359 8.02083 15.8125 7.63889 15.8125H6.94444V17.25H7.63889ZM1.04167 20.8438H8.68056C9.25781 20.8438 9.72222 21.3244 9.72222 21.9219C9.72222 22.5193 9.25781 23 8.68056 23H1.04167C0.46441 23 0 22.5193 0 21.9219C0 21.3244 0.46441 20.8438 1.04167 20.8438Z" fill="#036280"/>
</svg>
