<svg width="40" height="40" viewBox="0 0 40 40" fill="none" xmlns="http://www.w3.org/2000/svg">
<path fill-rule="evenodd" clip-rule="evenodd" d="M0 10C0 7.34784 1.05357 4.8043 2.92893 2.92893C4.8043 1.05357 7.34784 0 10 0L30 0C32.6522 0 35.1957 1.05357 37.0711 2.92893C38.9464 4.8043 40 7.34784 40 10V30C40 32.6522 38.9464 35.1957 37.0711 37.0711C35.1957 38.9464 32.6522 40 30 40H10C7.34784 40 4.8043 38.9464 2.92893 37.0711C1.05357 35.1957 0 32.6522 0 30L0 10ZM14.8857 8.90571C14.651 8.90534 14.4185 8.95125 14.2015 9.04082C13.9845 9.1304 13.7873 9.26187 13.6212 9.42773C13.4551 9.59358 13.3233 9.79057 13.2333 10.0074C13.1434 10.2242 13.0971 10.4567 13.0971 10.6914V30.7714C13.0971 31.245 13.2853 31.6992 13.6202 32.0341C13.9551 32.369 14.4093 32.5571 14.8829 32.5571C15.3565 32.5571 15.8107 32.369 16.1455 32.0341C16.4804 31.6992 16.6686 31.245 16.6686 30.7714V24.1886H23.9829C24.7802 24.1886 25.5697 24.0315 26.3063 23.7264C27.0429 23.4213 27.7122 22.9741 28.276 22.4103C28.8398 21.8465 29.287 21.1772 29.5921 20.4406C29.8972 19.704 30.0543 18.9145 30.0543 18.1171V14.9771C30.0543 14.1798 29.8972 13.3903 29.5921 12.6537C29.287 11.9171 28.8398 11.2478 28.276 10.684C27.7122 10.1202 27.0429 9.67299 26.3063 9.36787C25.5697 9.06276 24.7802 8.90571 23.9829 8.90571H14.8857ZM23.9829 20.62H16.6686V12.4771H23.9829C25.3629 12.4771 26.4829 13.5971 26.4829 14.9771V18.12C26.4821 18.7825 26.2184 19.4177 25.7496 19.8859C25.2809 20.3541 24.6454 20.62 23.9829 20.62Z" fill="#036280"/>
</svg>
