<svg width="32" height="32" viewBox="0 0 32 32" fill="none" xmlns="http://www.w3.org/2000/svg">
<path fill-rule="evenodd" clip-rule="evenodd" d="M16 0.375C16.4973 0.375 16.9742 0.572544 17.3258 0.924175C17.6775 1.27581 17.875 1.75272 17.875 2.25V14.125H29.75C30.2473 14.125 30.7242 14.3225 31.0758 14.6742C31.4275 15.0258 31.625 15.5027 31.625 16C31.625 16.4973 31.4275 16.9742 31.0758 17.3258C30.7242 17.6775 30.2473 17.875 29.75 17.875H17.875V29.75C17.875 30.2473 17.6775 30.7242 17.3258 31.0758C16.9742 31.4275 16.4973 31.625 16 31.625C15.5027 31.625 15.0258 31.4275 14.6742 31.0758C14.3225 30.7242 14.125 30.2473 14.125 29.75V17.875H2.25C1.75272 17.875 1.27581 17.6775 0.924175 17.3258C0.572544 16.9742 0.375 16.4973 0.375 16C0.375 15.5027 0.572544 15.0258 0.924175 14.6742C1.27581 14.3225 1.75272 14.125 2.25 14.125H14.125V2.25C14.125 1.75272 14.3225 1.27581 14.6742 0.924175C15.0258 0.572544 15.5027 0.375 16 0.375Z" fill="black"/>
</svg>
