<svg width="27" height="23" viewBox="0 0 27 23" fill="none" xmlns="http://www.w3.org/2000/svg">
<path fill-rule="evenodd" clip-rule="evenodd" d="M11.2314 0.373191C11.4481 0.612455 11.5698 0.936789 11.5698 1.27495C11.5698 1.61311 11.4481 1.93744 11.2314 2.17671L3.94884 10.2075H25.8428C26.1497 10.2075 26.4441 10.3419 26.6611 10.5812C26.8781 10.8205 27 11.1451 27 11.4835C27 11.822 26.8781 12.1465 26.6611 12.3858C26.4441 12.6252 26.1497 12.7596 25.8428 12.7596H3.94884L11.2314 20.7903C11.3451 20.9072 11.4363 21.048 11.4995 21.2046C11.5628 21.3611 11.5968 21.5301 11.5995 21.7014C11.6023 21.8728 11.5737 22.0429 11.5155 22.2018C11.4573 22.3607 11.3707 22.5051 11.2608 22.6262C11.1509 22.7474 11.02 22.8429 10.8759 22.9071C10.7318 22.9713 10.5775 23.0028 10.4221 22.9998C10.2667 22.9968 10.1135 22.9593 9.97156 22.8895C9.82961 22.8198 9.70186 22.7192 9.59592 22.5939L0.338423 12.3853C0.12172 12.146 0 11.8217 0 11.4835C0 11.1454 0.12172 10.821 0.338423 10.5818L9.59592 0.373191C9.81289 0.134225 10.107 0 10.4137 0C10.7203 0 11.0144 0.134225 11.2314 0.373191Z" fill="#453C41"/>
</svg>
