<svg width="40" height="40" viewBox="0 0 40 40" fill="none" xmlns="http://www.w3.org/2000/svg">
<path d="M39.979 21.9375C37.9929 11.2891 30.3679 4.89062 22.222 3.89844V2.5C22.222 1.11719 21.229 0 19.9998 0C18.7706 0 17.7776 1.11719 17.7776 2.5V3.89844C9.60398 4.89062 2.04843 11.2891 0.0206487 21.9375C-0.132129 22.7266 0.610927 23.6016 1.31926 22.8281C4.93037 18.5312 8.79843 18.7344 12.3331 25.7188C12.7012 26.4609 13.3679 26.3906 13.7012 25.7188C15.104 22.9531 16.8193 20 19.9998 20C24.0623 20 26.1248 25.375 26.2984 25.7188C26.6318 26.3906 27.2984 26.4609 27.6665 25.7188C31.2081 18.7266 35.104 18.5781 38.6804 22.8281C39.3956 23.6094 40.1318 22.7266 39.979 21.9375ZM17.7776 23.5703V33.75C17.7776 34.4375 17.2776 35 16.6665 35C16.1248 35 15.7498 34.5859 15.6179 34.1641C15.2081 32.8594 13.9443 32.1797 12.7845 32.6406C11.6248 33.1016 11.0206 34.5312 11.4304 35.8281C12.2081 38.3203 14.3193 39.9922 16.6665 39.9922C19.729 39.9922 22.222 37.1875 22.222 33.7422V23.5625C21.5901 22.9453 20.847 22.5 19.9998 22.5C19.1456 22.5078 18.4443 22.875 17.7776 23.5703Z" fill="#036280"/>
</svg>
