<svg width="40" height="40" viewBox="0 0 40 40" fill="none" xmlns="http://www.w3.org/2000/svg">
<path fill-rule="evenodd" clip-rule="evenodd" d="M20.9715 9.40286C19.4705 9.79711 18.1638 10.7231 17.2944 12.0086C17.14 12.2499 16.9388 12.4577 16.7028 12.6199C16.4667 12.7821 16.2005 12.8953 15.9199 12.9529C15.6393 13.0104 15.35 13.0111 15.0691 12.955C14.7882 12.8988 14.5215 12.7869 14.2846 12.6258C14.0477 12.4648 13.8455 12.2579 13.69 12.0174C13.5344 11.7769 13.4287 11.5076 13.379 11.2255C13.3293 10.9434 13.3367 10.6542 13.4006 10.375C13.4646 10.0958 13.5839 9.8323 13.7515 9.60001C14.6192 8.3219 15.7529 7.24652 17.0751 6.44761C18.3973 5.64869 19.8765 5.14512 21.4115 4.97144C20.3357 4.3785 19.0855 4.18327 17.8801 4.42001C17.3305 4.51118 16.767 4.38473 16.3091 4.06748C15.8512 3.75022 15.5348 3.26709 15.427 2.72052C15.3193 2.17394 15.4286 1.60689 15.7319 1.13956C16.0351 0.67224 16.5085 0.34139 17.0515 0.21715C18.9915 -0.165438 21.0025 0.065918 22.8049 0.879056C24.6074 1.69219 26.1116 3.04671 27.1087 4.75429C28.9822 4.05441 31.0216 3.92736 32.9675 4.3893C34.9135 4.85124 36.6781 5.8813 38.0372 7.34858C38.2286 7.55494 38.3774 7.79697 38.4753 8.06086C38.5731 8.32474 38.618 8.60531 38.6073 8.88653C38.5967 9.16776 38.5308 9.44415 38.4134 9.69991C38.296 9.95567 38.1293 10.1858 37.923 10.3772C37.7166 10.5685 37.4746 10.7173 37.2107 10.8152C36.9468 10.913 36.6662 10.9579 36.385 10.9472C36.1038 10.9366 35.8274 10.8707 35.5716 10.7533C35.3159 10.6359 35.0857 10.4692 34.8944 10.2629C33.9346 9.22547 32.629 8.57421 31.223 8.43144H31.2058C32.2253 9.53585 32.9659 10.868 33.366 12.3168C33.7661 13.7655 33.814 15.2889 33.5058 16.76C33.4497 17.0371 33.3394 17.3003 33.1811 17.5345C33.0229 17.7687 32.8198 17.9693 32.5837 18.1247C32.3476 18.2801 32.083 18.3873 31.8053 18.44C31.5276 18.4928 31.2422 18.49 30.9656 18.432C30.6889 18.374 30.4265 18.2617 30.1934 18.1018C29.9603 17.9419 29.7611 17.7375 29.6074 17.5003C29.4536 17.2631 29.3483 16.9978 29.2976 16.7197C29.2468 16.4416 29.2515 16.1562 29.3115 15.88C29.5566 14.7089 29.3857 13.489 28.8282 12.4303C28.2707 11.3717 27.3615 10.5405 26.2572 10.08C25.0372 10.9114 24.0115 12.2772 23.2315 14.1657C22.4544 16.0457 21.9744 18.3343 21.7915 20.8286C23.3871 21.2379 24.9098 21.8913 26.3058 22.7657C28.5201 24.1372 30.4772 26.0514 32.0887 28.3657C31.0211 28.6245 30.0929 29.2818 29.4944 30.2029C29.2487 30.5972 28.9944 30.9172 28.7458 31.1714C28.2054 31.7005 27.4792 31.9969 26.723 31.9969C25.9667 31.9969 25.2405 31.7005 24.7001 31.1714C24.4631 30.9246 24.2489 30.6569 24.0601 30.3714C22.9544 28.7257 21.043 28.3686 19.9115 28.3686C18.7801 28.3686 16.8687 28.7257 15.763 30.3714C15.5736 30.6565 15.3595 30.9242 15.123 31.1714C14.5826 31.7005 13.8564 31.9969 13.1001 31.9969C12.3438 31.9969 11.6176 31.7005 11.0772 31.1714C10.7938 30.8756 10.542 30.551 10.3258 30.2029C9.26868 28.5257 7.37439 28.1743 6.29153 28.1743C5.70296 28.1743 4.89153 28.2772 4.09439 28.6314C5.7401 26.1943 7.76296 24.1914 10.0572 22.7657C12.3019 21.3446 14.8754 20.5268 17.5287 20.3914C17.743 17.5972 18.2972 14.8886 19.2715 12.5286C19.7191 11.4262 20.2894 10.3777 20.9715 9.40286ZM8.25725 32.8286C8.09146 32.4411 7.81511 32.1112 7.46277 31.88C7.11043 31.6488 6.69774 31.5266 6.27633 31.5288C5.85491 31.5309 5.44348 31.6572 5.0935 31.892C4.74353 32.1267 4.47053 32.4595 4.30868 32.8486C4.06602 33.4329 3.69627 33.9558 3.22627 34.3793C2.75627 34.8029 2.19784 35.1164 1.59153 35.2972C1.32176 35.3773 1.07041 35.5097 0.851826 35.687C0.633244 35.8642 0.451713 36.0828 0.317599 36.3302C0.183485 36.5776 0.0994129 36.849 0.070184 37.1289C0.0409551 37.4088 0.0671413 37.6917 0.147248 37.9614C0.227354 38.2312 0.359812 38.4826 0.537058 38.7011C0.714304 38.9197 0.932867 39.1013 1.18027 39.2354C1.42767 39.3695 1.69907 39.4536 1.97896 39.4828C2.25885 39.512 2.54176 39.4858 2.81153 39.4057C4.11378 39.0182 5.30483 38.3258 6.28582 37.3857C6.78011 37.8686 7.33153 38.2943 7.93153 38.6543C10.923 40.4486 15.2772 40.4486 18.2687 38.6543C18.8637 38.2977 19.415 37.873 19.9115 37.3886C20.4058 37.8686 20.9544 38.2943 21.5544 38.6543C24.5458 40.4486 28.9001 40.4486 31.8915 38.6543C32.4915 38.2943 33.043 37.8686 33.5372 37.3857L33.7287 37.5657C34.6715 38.4143 35.7944 39.0429 37.0115 39.4029C37.5492 39.5425 38.12 39.468 38.6037 39.1949C39.0874 38.9219 39.4462 38.4717 39.6044 37.9392C39.7627 37.4068 39.7079 36.8337 39.4518 36.3408C39.1957 35.8479 38.7582 35.4737 38.2315 35.2972C37.6252 35.1164 37.0668 34.8029 36.5968 34.3793C36.1268 33.9558 35.757 33.4329 35.5144 32.8486C35.3525 32.4595 35.0795 32.1267 34.7296 31.892C34.3796 31.6572 33.9682 31.5309 33.5467 31.5288C33.1253 31.5266 32.7126 31.6488 32.3603 31.88C32.008 32.1112 31.7316 32.4411 31.5658 32.8286C31.1809 33.7255 30.5231 34.4783 29.6858 34.98C28.0515 35.96 25.3915 35.96 23.7601 34.98C22.9227 34.4785 22.2649 33.7256 21.8801 32.8286C21.7146 32.4437 21.4399 32.1158 21.0901 31.8854C20.7402 31.655 20.3305 31.5322 19.9115 31.5322C19.4926 31.5322 19.0829 31.655 18.733 31.8854C18.3831 32.1158 18.1085 32.4437 17.943 32.8286C17.5582 33.7256 16.9003 34.4785 16.063 34.98C14.4287 35.96 11.7687 35.96 10.1344 34.98C9.2981 34.478 8.64128 33.7252 8.25725 32.8286Z" fill="#036280"/>
</svg>
