<svg width="111" height="15" viewBox="0 0 111 15" fill="none" xmlns="http://www.w3.org/2000/svg">
<path d="M13.7281 6.72931L11.0914 9.00451L11.8947 12.407C11.9391 12.5918 11.9276 12.7855 11.8619 12.9637C11.7962 13.1419 11.6792 13.2967 11.5256 13.4084C11.3719 13.5201 11.1887 13.5838 10.9989 13.5914C10.8091 13.5991 10.6213 13.5503 10.4592 13.4512L7.50021 11.6301L4.53947 13.4512C4.37741 13.5497 4.18984 13.598 4.00037 13.5901C3.8109 13.5822 3.628 13.5184 3.4747 13.4068C3.32141 13.2952 3.20457 13.1407 3.1389 12.9628C3.07323 12.7849 3.06167 12.5915 3.10568 12.407L3.91193 9.00451L1.27521 6.72931C1.13183 6.60539 1.02813 6.44198 0.977072 6.25948C0.926012 6.07698 0.92985 5.88348 0.988107 5.70314C1.04636 5.52281 1.15646 5.36364 1.30464 5.2455C1.45282 5.12736 1.63252 5.0555 1.8213 5.03888L5.27833 4.75998L6.61193 1.53263C6.68411 1.35675 6.80697 1.20629 6.96488 1.10041C7.12279 0.994525 7.30862 0.937988 7.49874 0.937988C7.68887 0.937988 7.8747 0.994525 8.03261 1.10041C8.19052 1.20629 8.31337 1.35675 8.38556 1.53263L9.71857 4.75998L13.1756 5.03888C13.3648 5.05488 13.545 5.12634 13.6937 5.24432C13.8424 5.36229 13.953 5.52153 14.0116 5.70208C14.0703 5.88263 14.0743 6.07647 14.0232 6.2593C13.9722 6.44214 13.8683 6.60584 13.7246 6.7299L13.7281 6.72931Z" fill="#FFD700"/>
<path d="M37.7281 6.72931L35.0914 9.00451L35.8947 12.407C35.9391 12.5918 35.9276 12.7855 35.8619 12.9637C35.7962 13.1419 35.6792 13.2967 35.5256 13.4084C35.3719 13.5201 35.1887 13.5838 34.9989 13.5914C34.8091 13.5991 34.6213 13.5503 34.4592 13.4512L31.5002 11.6301L28.5395 13.4512C28.3774 13.5497 28.1898 13.598 28.0004 13.5901C27.8109 13.5822 27.628 13.5184 27.4747 13.4068C27.3214 13.2952 27.2046 13.1407 27.1389 12.9628C27.0732 12.7849 27.0617 12.5915 27.1057 12.407L27.9119 9.00451L25.2752 6.72931C25.1318 6.60539 25.0281 6.44198 24.9771 6.25948C24.926 6.07698 24.9299 5.88348 24.9881 5.70314C25.0464 5.52281 25.1565 5.36364 25.3046 5.2455C25.4528 5.12736 25.6325 5.0555 25.8213 5.03888L29.2783 4.75998L30.6119 1.53263C30.6841 1.35675 30.807 1.20629 30.9649 1.10041C31.1228 0.994525 31.3086 0.937988 31.4987 0.937988C31.6889 0.937988 31.8747 0.994525 32.0326 1.10041C32.1905 1.20629 32.3134 1.35675 32.3856 1.53263L33.7186 4.75998L37.1756 5.03888C37.3648 5.05488 37.545 5.12634 37.6937 5.24432C37.8424 5.36229 37.953 5.52153 38.0116 5.70208C38.0703 5.88263 38.0743 6.07647 38.0232 6.2593C37.9722 6.44214 37.8683 6.60584 37.7246 6.7299L37.7281 6.72931Z" fill="#FFD700"/>
<path d="M61.7281 6.72931L59.0914 9.00451L59.8947 12.407C59.9391 12.5918 59.9276 12.7855 59.8619 12.9637C59.7962 13.1419 59.6792 13.2967 59.5256 13.4084C59.3719 13.5201 59.1887 13.5838 58.9989 13.5914C58.8091 13.5991 58.6213 13.5503 58.4592 13.4512L55.5002 11.6301L52.5395 13.4512C52.3774 13.5497 52.1898 13.598 52.0004 13.5901C51.8109 13.5822 51.628 13.5184 51.4747 13.4068C51.3214 13.2952 51.2046 13.1407 51.1389 12.9628C51.0732 12.7849 51.0617 12.5915 51.1057 12.407L51.9119 9.00451L49.2752 6.72931C49.1318 6.60539 49.0281 6.44198 48.9771 6.25948C48.926 6.07698 48.9299 5.88348 48.9881 5.70314C49.0464 5.52281 49.1565 5.36364 49.3046 5.2455C49.4528 5.12736 49.6325 5.0555 49.8213 5.03888L53.2783 4.75998L54.6119 1.53263C54.6841 1.35675 54.807 1.20629 54.9649 1.10041C55.1228 0.994525 55.3086 0.937988 55.4987 0.937988C55.6889 0.937988 55.8747 0.994525 56.0326 1.10041C56.1905 1.20629 56.3134 1.35675 56.3856 1.53263L57.7186 4.75998L61.1756 5.03888C61.3648 5.05488 61.545 5.12634 61.6937 5.24432C61.8424 5.36229 61.953 5.52153 62.0116 5.70208C62.0703 5.88263 62.0743 6.07647 62.0232 6.2593C61.9722 6.44214 61.8683 6.60584 61.7246 6.7299L61.7281 6.72931Z" fill="#FFD700"/>
<path d="M85.7281 6.72931L83.0914 9.00451L83.8947 12.407C83.9391 12.5918 83.9276 12.7855 83.8619 12.9637C83.7962 13.1419 83.6792 13.2967 83.5256 13.4084C83.3719 13.5201 83.1887 13.5838 82.9989 13.5914C82.8091 13.5991 82.6213 13.5503 82.4592 13.4512L79.5002 11.6301L76.5395 13.4512C76.3774 13.5497 76.1898 13.598 76.0004 13.5901C75.8109 13.5822 75.628 13.5184 75.4747 13.4068C75.3214 13.2952 75.2046 13.1407 75.1389 12.9628C75.0732 12.7849 75.0617 12.5915 75.1057 12.407L75.9119 9.00451L73.2752 6.72931C73.1318 6.60539 73.0281 6.44198 72.9771 6.25948C72.926 6.07698 72.9299 5.88348 72.9881 5.70314C73.0464 5.52281 73.1565 5.36364 73.3046 5.2455C73.4528 5.12736 73.6325 5.0555 73.8213 5.03888L77.2783 4.75998L78.6119 1.53263C78.6841 1.35675 78.807 1.20629 78.9649 1.10041C79.1228 0.994525 79.3086 0.937988 79.4987 0.937988C79.6889 0.937988 79.8747 0.994525 80.0326 1.10041C80.1905 1.20629 80.3134 1.35675 80.3856 1.53263L81.7186 4.75998L85.1756 5.03888C85.3648 5.05488 85.545 5.12634 85.6937 5.24432C85.8424 5.36229 85.953 5.52153 86.0116 5.70208C86.0703 5.88263 86.0743 6.07647 86.0232 6.2593C85.9722 6.44214 85.8683 6.60584 85.7246 6.7299L85.7281 6.72931Z" fill="#FFD700"/>
<path d="M109.728 6.72931L107.091 9.00451L107.895 12.407C107.939 12.5918 107.928 12.7855 107.862 12.9637C107.796 13.1419 107.679 13.2967 107.526 13.4084C107.372 13.5201 107.189 13.5838 106.999 13.5914C106.809 13.5991 106.621 13.5503 106.459 13.4512L103.5 11.6301L100.539 13.4512C100.377 13.5497 100.19 13.598 100 13.5901C99.8109 13.5822 99.628 13.5184 99.4747 13.4068C99.3214 13.2952 99.2046 13.1407 99.1389 12.9628C99.0732 12.7849 99.0617 12.5915 99.1057 12.407L99.9119 9.00451L97.2752 6.72931C97.1318 6.60539 97.0281 6.44198 96.9771 6.25948C96.926 6.07698 96.9299 5.88348 96.9881 5.70314C97.0464 5.52281 97.1565 5.36364 97.3046 5.2455C97.4528 5.12736 97.6325 5.0555 97.8213 5.03888L101.278 4.75998L102.612 1.53263C102.684 1.35675 102.807 1.20629 102.965 1.10041C103.123 0.994525 103.309 0.937988 103.499 0.937988C103.689 0.937988 103.875 0.994525 104.033 1.10041C104.191 1.20629 104.313 1.35675 104.386 1.53263L105.719 4.75998L109.176 5.03888C109.365 5.05488 109.545 5.12634 109.694 5.24432C109.842 5.36229 109.953 5.52153 110.012 5.70208C110.07 5.88263 110.074 6.07647 110.023 6.2593C109.972 6.44214 109.868 6.60584 109.725 6.7299L109.728 6.72931Z" fill="#FFD700"/>
</svg>
