<svg width="20" height="16" viewBox="0 0 20 16" fill="none" xmlns="http://www.w3.org/2000/svg">
<path d="M18.9994 0.973267L0.999427 0.973266C0.817186 0.973839 0.638551 1.02419 0.482751 1.1189C0.326951 1.21362 0.199886 1.3491 0.115232 1.51078C0.030578 1.67245 -0.00845786 1.8542 0.00232437 2.03644C0.0131066 2.21869 0.0733006 2.39454 0.176427 2.54507L9.17643 15.5683C9.54943 16.1083 10.4474 16.1083 10.8214 15.5683L19.8214 2.54507C19.9256 2.39486 19.9867 2.21892 19.9981 2.03637C20.0094 1.85382 19.9706 1.67164 19.8859 1.50962C19.8012 1.3476 19.6738 1.21194 19.5175 1.11738C19.3612 1.02282 19.182 0.972979 18.9994 0.973267Z" fill="#453C41"/>
</svg>
