<svg width="23" height="18" viewBox="0 0 23 18" fill="none" xmlns="http://www.w3.org/2000/svg">
<path d="M2.24004 14.7002H20.76C22.2504 14.7002 23 13.9856 23 12.4606V2.47241C23 0.947431 22.2504 0.232788 20.76 0.232788H2.24004C0.749143 0.232378 0 0.947021 0 2.47241V12.4606C0 13.9856 0.749554 14.7002 2.24004 14.7002ZM17.8402 17.1234C17.8402 16.67 17.4747 16.304 17.0299 16.304H5.95289C5.50809 16.304 5.15077 16.6696 5.15077 17.123C5.15077 17.5764 5.50809 17.9424 5.95248 17.9424H17.0294C17.2455 17.9409 17.4521 17.8538 17.6041 17.7002C17.7561 17.5466 17.841 17.3395 17.8402 17.1234Z" fill="#036280"/>
</svg>
