<svg width="30" height="30" viewBox="0 0 30 30" fill="none" xmlns="http://www.w3.org/2000/svg">
<g clip-path="url(#clip0_136_925)">
<path d="M0.640234 14.8204C0.639531 17.341 1.30328 19.8021 2.56539 21.9714L0.519531 29.3833L8.16391 27.3944C10.2782 28.5365 12.6472 29.135 15.0545 29.1351H15.0609C23.0079 29.1351 29.477 22.7185 29.4804 14.8316C29.482 11.0099 27.9834 7.41618 25.2606 4.71246C22.5384 2.00897 18.9179 0.519322 15.0603 0.517578C7.11227 0.517578 0.643633 6.93386 0.640352 14.8204" fill="url(#paint0_linear_136_925)"/>
<path d="M0.125391 14.8158C0.12457 17.4271 0.812109 19.9763 2.11922 22.2233L0 29.9008L7.91848 27.8407C10.1003 29.021 12.5568 29.6434 15.0564 29.6443H15.0628C23.295 29.6443 29.9965 22.9969 30 14.8277C30.0014 10.8686 28.4489 7.1457 25.6289 4.34512C22.8086 1.54488 19.0586 0.00162791 15.0628 0C6.82922 0 0.128672 6.64651 0.125391 14.8158ZM4.84113 21.8363L4.54547 21.3706C3.30258 19.4097 2.64656 17.1436 2.6475 14.8167C2.65008 8.02663 8.2193 2.50233 15.0675 2.50233C18.3839 2.50372 21.5006 3.78651 23.8448 6.11395C26.1889 8.44163 27.4788 11.5358 27.478 14.8267C27.475 21.6169 21.9056 27.1419 15.0628 27.1419H15.0579C12.8298 27.1407 10.6446 26.547 8.73891 25.425L8.28539 25.1581L3.58641 26.3806L4.84113 21.8363Z" fill="url(#paint1_linear_136_925)"/>
<path d="M11.3293 8.62165C11.0497 8.00502 10.7554 7.99257 10.4895 7.98176C10.2718 7.97246 10.0229 7.97316 9.77422 7.97316C9.52531 7.97316 9.1209 8.06606 8.77906 8.43641C8.43687 8.80711 7.47266 9.70292 7.47266 11.5249C7.47266 13.347 8.81012 15.1078 8.99656 15.3551C9.18324 15.602 11.5786 19.4606 15.3721 20.945C18.525 22.1786 19.1666 21.9333 19.8508 21.8714C20.5352 21.8098 22.0591 20.9758 22.37 20.1111C22.6811 19.2464 22.6811 18.5052 22.5879 18.3504C22.4946 18.1961 22.2457 18.1034 21.8724 17.9183C21.4991 17.733 19.6641 16.8371 19.3221 16.7135C18.9799 16.59 18.7311 16.5284 18.4822 16.8992C18.2333 17.2694 17.5186 18.1034 17.3007 18.3504C17.0831 18.5979 16.8652 18.6287 16.4921 18.4435C16.1186 18.2577 14.9166 17.8671 13.4906 16.6056C12.3811 15.624 11.632 14.4118 11.4143 14.0409C11.1965 13.6707 11.3909 13.47 11.5781 13.2855C11.7458 13.1196 11.9514 12.853 12.1382 12.6369C12.3243 12.4206 12.3864 12.2663 12.5109 12.0193C12.6355 11.7721 12.5731 11.5558 12.48 11.3706C12.3864 11.1854 11.6612 9.35385 11.3293 8.62165Z" fill="white"/>
</g>
<defs>
<linearGradient id="paint0_linear_136_925" x1="1448.56" y1="2887.09" x2="1448.56" y2="0.517578" gradientUnits="userSpaceOnUse">
<stop stop-color="#1FAF38"/>
<stop offset="1" stop-color="#60D669"/>
</linearGradient>
<linearGradient id="paint1_linear_136_925" x1="1500" y1="2990.08" x2="1500" y2="0" gradientUnits="userSpaceOnUse">
<stop stop-color="#F9F9F9"/>
<stop offset="1" stop-color="white"/>
</linearGradient>
<clipPath id="clip0_136_925">
<rect width="30" height="30" fill="white"/>
</clipPath>
</defs>
</svg>
