<svg width="40" height="40" viewBox="0 0 40 40" fill="none" xmlns="http://www.w3.org/2000/svg">
<g clip-path="url(#clip0_2011_147)">
<path fill-rule="evenodd" clip-rule="evenodd" d="M25.8823 27.6378C25.8752 27.6277 25.8925 27.652 25.8823 27.6378C25.8559 27.6018 25.8289 27.5662 25.8011 27.5312C25.7116 27.4186 25.6173 27.3099 25.5185 27.2054C25.2754 26.9474 24.9177 26.6166 24.4349 26.2894C23.4598 25.6287 21.9968 25 19.9999 25C18.003 25 16.54 25.6287 15.5649 26.2894C15.0821 26.6166 14.7244 26.9474 14.4813 27.2054C14.3824 27.3099 14.2881 27.4186 14.1986 27.5312C14.165 27.5737 14.2193 27.503 14.1986 27.5312L14.0747 27.6985C13.9101 27.9421 13.8366 28.2358 13.8671 28.5282C13.8976 28.8206 14.0302 29.0929 14.2415 29.2972L19.1311 34.0238C19.6156 34.4921 20.3841 34.4921 20.8686 34.0238L25.7582 29.2972C25.9696 29.0929 26.1022 28.8206 26.1327 28.5282C26.1632 28.2359 26.0897 27.9421 25.9251 27.6985L25.8823 27.6378Z" fill="#036280"/>
<path fill-rule="evenodd" clip-rule="evenodd" d="M32.8972 21.083C32.8866 21.0659 32.8506 21.0075 32.8337 20.9814C32.7881 20.9116 32.741 20.8429 32.6923 20.7752C32.5711 20.6063 32.3944 20.3771 32.1563 20.1084C31.6798 19.5709 30.9562 18.8738 29.9362 18.1836C27.8838 16.7945 24.6848 15.4688 19.9998 15.4688C15.3149 15.4688 12.1158 16.7945 10.0634 18.1836C9.04351 18.8738 8.31983 19.5709 7.84335 20.1084C7.60515 20.3771 7.42851 20.6063 7.30733 20.7752C7.25866 20.8429 7.21151 20.9116 7.16593 20.9814C7.14905 21.0076 7.13533 21.0291 7.12476 21.0462L7.10249 21.083C6.95938 21.3252 6.90218 21.6087 6.94015 21.8875C6.97811 22.1662 7.10903 22.4241 7.31171 22.6192L10.0703 25.2755C10.1912 25.3919 10.3343 25.4828 10.4911 25.5427C10.6479 25.6026 10.8152 25.6303 10.9829 25.6242C11.1507 25.6181 11.3155 25.5782 11.4675 25.5071C11.6195 25.4359 11.7556 25.3348 11.8677 25.2098L11.883 25.1935C11.8991 25.1764 11.9271 25.1473 11.9669 25.1079C12.0886 24.988 12.2144 24.8724 12.3443 24.7613C12.6882 24.4656 13.2109 24.0623 13.9033 23.6566C15.2856 22.8466 17.3352 22.0312 19.9998 22.0312C22.6644 22.0312 24.7141 22.8466 26.0964 23.6566C26.7887 24.0623 27.3115 24.4656 27.6554 24.7613C27.7852 24.8724 27.9111 24.988 28.0328 25.1079C28.0665 25.1413 28.0995 25.1752 28.1319 25.2098L28.1316 25.2094L28.1305 25.2082M28.1305 25.2082L28.1326 25.2105C28.2447 25.3353 28.3808 25.4362 28.5328 25.5073C28.6848 25.5784 28.8495 25.6181 29.0172 25.6242C29.1848 25.6303 29.352 25.6025 29.5087 25.5426C29.6655 25.4827 29.8085 25.3918 29.9294 25.2755L32.688 22.6192C32.8906 22.4241 33.0216 22.1662 33.0595 21.8875C33.0975 21.6087 33.0403 21.3252 32.8972 21.083" fill="#036280"/>
<path d="M39.6855 14.1613C39.7123 14.1971 39.7778 14.2885 39.7778 14.2885C39.9464 14.5321 40.0231 14.8277 39.994 15.1225C39.965 15.4174 39.8322 15.6923 39.6193 15.8984L36.7529 18.6718C36.6298 18.7909 36.4836 18.8834 36.3233 18.9436C36.1631 19.0038 35.9921 19.0305 35.8211 19.0219C35.6501 19.0133 35.4827 18.9697 35.3292 18.8938C35.1758 18.8178 35.0396 18.7112 34.929 18.5804L34.9288 18.5802L34.9222 18.5724C34.915 18.5641 34.9024 18.5498 34.8845 18.5296C34.8282 18.4668 34.771 18.4048 34.7129 18.3438C34.5559 18.1784 34.3148 17.9352 33.9919 17.6398C33.3454 17.0485 32.3754 16.252 31.1015 15.4538C28.5547 13.8581 24.811 12.2656 20.0001 12.2656C15.1891 12.2656 11.4454 13.8581 8.89865 15.4538C7.62466 16.252 6.65474 17.0485 6.00826 17.6398C5.68537 17.9352 5.4442 18.1784 5.28724 18.3438C5.22911 18.4049 5.17189 18.4668 5.1156 18.5296C5.09763 18.5498 5.08508 18.5641 5.07795 18.5724L5.07427 18.5766L5.07193 18.5793L5.07162 18.5798L5.07131 18.5802L5.07099 18.5805C4.96046 18.7112 4.82424 18.8179 4.67079 18.8938C4.51734 18.9697 4.34993 19.0133 4.17894 19.0219C4.00794 19.0304 3.83701 19.0038 3.67674 18.9436C3.51647 18.8833 3.37029 18.7908 3.24724 18.6718L0.380836 15.8984C0.167905 15.6923 0.0350713 15.4174 0.00602416 15.1226C-0.023023 14.8277 0.0536048 14.5321 0.222242 14.2885L0.223102 14.2873L0.224117 14.2859L0.226461 14.2826L0.232633 14.2737L0.251383 14.2474C0.266748 14.2259 0.287815 14.1972 0.314586 14.1613C0.36818 14.0894 0.44482 13.9895 0.544977 13.8655C0.745211 13.6175 1.0399 13.2729 1.43302 12.8641C2.21873 12.0469 3.4006 10.9702 5.00982 9.89742C8.23732 7.74578 13.1626 5.625 20.0001 5.625C26.8376 5.625 31.7628 7.74578 34.9903 9.89742C36.5995 10.9702 37.7814 12.0469 38.5671 12.8641C38.9602 13.2729 39.2549 13.6175 39.4551 13.8655C39.5338 13.9626 39.6106 14.0612 39.6855 14.1613Z" fill="#036280"/>
</g>
<defs>
<clipPath id="clip0_2011_147">
<rect width="40" height="40" fill="white"/>
</clipPath>
</defs>
</svg>
