<?xml version="1.0" standalone="no"?>
<!DOCTYPE svg PUBLIC "-//W3C//DTD SVG 20010904//EN"
 "http://www.w3.org/TR/2001/REC-SVG-20010904/DTD/svg10.dtd">
<svg version="1.0" xmlns="http://www.w3.org/2000/svg"
 width="75.000000pt" height="75.000000pt" viewBox="0 0 75.000000 75.000000"
 preserveAspectRatio="xMidYMid meet">
<metadata>
Created by potrace 1.14, written by Peter Selinger 2001-2017
</metadata>
<g transform="translate(0.000000,75.000000) scale(0.100000,-0.100000)"
fill="#000000" stroke="none">
<path d="M0 375 l0 -375 173 1 c101 1 160 5 142 9 -16 4 -25 8 -20 9 6 0 16
15 22 31 11 29 14 30 70 29 32 0 80 -8 108 -18 l50 -18 -45 -16 c-25 -9 -54
-18 -65 -20 -11 -3 55 -5 148 -6 l167 -1 0 375 0 375 -375 0 -375 0 0 -375z
m393 358 c-7 -2 -21 -2 -30 0 -10 3 -4 5 12 5 17 0 24 -2 18 -5z m-115 -100
c6 -16 13 -41 16 -56 l7 -28 32 24 c31 24 67 32 67 15 0 -15 -5 -23 -13 -20
-5 1 -7 -3 -4 -10 2 -7 -5 -24 -15 -38 l-20 -25 44 -5 c29 -4 54 -15 73 -33
39 -36 23 -52 -27 -27 -20 10 -39 15 -42 12 -3 -2 -12 0 -19 6 -21 17 -28 2
-12 -22 24 -33 17 -41 -11 -12 -27 27 -56 37 -35 13 17 -22 41 -97 30 -97 -5
0 -17 16 -26 35 -25 53 -30 49 -82 -67 -16 -37 -51 -90 -77 -118 -26 -28 -45
-53 -42 -56 3 -3 28 20 56 51 43 49 53 55 70 46 45 -24 69 -144 38 -187 -15
-19 -16 -18 -70 10 -63 32 -124 94 -156 156 -12 23 -17 39 -12 36 6 -3 26 1
46 9 19 8 53 15 75 15 37 0 40 3 65 52 14 29 26 61 25 72 0 20 -1 20 -16 -1
-26 -38 -45 -30 -37 15 6 31 5 35 -7 26 -8 -6 -28 -14 -45 -17 -18 -3 -44 -9
-59 -13 l-27 -7 17 26 c15 24 34 32 97 41 21 3 36 16 19 16 -7 0 -10 4 -6 9 3
6 -4 8 -17 6 -12 -3 -26 1 -30 8 -5 8 -8 6 -8 -7 0 -13 -3 -17 -10 -10 -13 13
-2 51 17 58 9 4 11 2 7 -6 -4 -7 -3 -8 5 -4 6 4 20 2 29 -5 12 -10 12 -8 -2 9
-20 23 -20 23 0 16 12 -4 6 6 -18 30 -33 31 -35 36 -18 41 23 7 58 -9 83 -39
17 -21 18 -20 16 24 -1 57 -1 60 10 60 5 0 13 -12 19 -27z m-148 -6 c0 -2 -10
-12 -22 -23 l-23 -19 19 23 c18 21 26 27 26 19z m521 -24 c13 -16 12 -17 -3
-4 -17 13 -22 21 -14 21 2 0 10 -8 17 -17z m-624 -175 c-3 -8 -6 -5 -6 6 -1
11 2 17 5 13 3 -3 4 -12 1 -19z m634 -169 l48 -21 -20 -40 c-11 -22 -23 -38
-27 -36 -106 56 -183 68 -286 44 -51 -12 -72 -13 -82 -5 -8 6 -11 15 -8 20 5
8 143 53 194 63 44 8 131 -4 181 -25z m-62 -96 c24 -12 49 -20 55 -17 6 3 -13
-17 -42 -46 -46 -46 -54 -50 -67 -37 -25 25 -86 41 -158 42 l-68 0 3 30 c3 26
9 32 48 42 68 19 177 12 229 -14z"/>
</g>
</svg>
