<svg width="61" height="60" viewBox="0 0 61 60" fill="none" xmlns="http://www.w3.org/2000/svg">
<g clip-path="url(#clip0_136_849)">
<path d="M10.9166 19.1665L20.5 21.9332L31.0333 14.2832L15.9166 14.7165C15.7683 14.7231 15.6245 14.7691 15.5 14.8499L10.7166 17.5999C10.5678 17.6823 10.4472 17.8075 10.3703 17.9592C10.2934 18.111 10.2639 18.2823 10.2854 18.451C10.3069 18.6198 10.3786 18.7781 10.4912 18.9057C10.6037 19.0333 10.7519 19.1241 10.9166 19.1665Z" fill="#036280"/>
<path d="M58.0333 10.6L47.5333 8.33335C46.6503 8.14164 45.7363 8.14214 44.8535 8.33482C43.9706 8.52749 43.1395 8.90783 42.4167 9.45002L10.7 32.5L3.08332 32.1667C2.64705 32.1519 2.21713 32.2744 1.85429 32.5171C1.49144 32.7598 1.214 33.1104 1.06113 33.5192C0.908255 33.9281 0.887683 34.3747 1.00231 34.7959C1.11695 35.2171 1.36099 35.5917 1.69999 35.8667L9.11665 41.75C9.23875 41.8485 9.38408 41.914 9.53875 41.9403C9.69341 41.9666 9.85222 41.9527 9.99999 41.9C12.1167 41.0834 20 36.9 29.3167 31.7833L31.1833 50.9667C31.1992 51.1328 31.2601 51.2915 31.3594 51.4256C31.4588 51.5596 31.5929 51.664 31.7473 51.7275C31.9017 51.791 32.0704 51.8111 32.2354 51.7857C32.4003 51.7603 32.5552 51.6903 32.6833 51.5834L36.85 48.1167C37.0781 47.9254 37.2315 47.6598 37.2833 47.3667L41.2333 25.2167C47.9 21.5167 54.2667 17.9334 58.75 15.4C59.2153 15.1468 59.5914 14.7568 59.8276 14.2827C60.0638 13.8085 60.1485 13.2733 60.0703 12.7494C59.992 12.2255 59.7547 11.7383 59.3903 11.3539C59.026 10.9694 58.5522 10.7062 58.0333 10.6Z" fill="#036280"/>
</g>
<defs>
<clipPath id="clip0_136_849">
<rect width="60" height="60" fill="white" transform="translate(0.5)"/>
</clipPath>
</defs>
</svg>
