<svg width="55" height="60" viewBox="0 0 55 60" fill="none" xmlns="http://www.w3.org/2000/svg">
<path d="M11.7857 0C5.27902 0 0 5.03906 0 11.25V41.25C0 46.875 4.32143 51.5273 9.95647 52.3711L4.30915 57.7617C3.44978 58.582 4.06362 60 5.27902 60H10.1529C11.1964 60 12.1908 59.6016 12.9275 58.8984L19.6429 52.5H35.3571L42.0603 58.8984C42.7969 59.6016 43.7913 60 44.8348 60H49.721C50.9487 60 51.5625 58.582 50.6908 57.7617L45.0435 52.3711C50.6908 51.5391 55 46.875 55 41.25V11.25C55 5.03906 49.721 0 43.2143 0H11.7857ZM7.85714 11.25C7.85714 9.17578 9.61272 7.5 11.7857 7.5H43.2143C45.3873 7.5 47.1429 9.17578 47.1429 11.25V22.5C47.1429 24.5742 45.3873 26.25 43.2143 26.25H11.7857C9.61272 26.25 7.85714 24.5742 7.85714 22.5V11.25ZM27.5 33.75C29.0629 33.75 30.5618 34.3426 31.6669 35.3975C32.772 36.4524 33.3929 37.8832 33.3929 39.375C33.3929 40.8668 32.772 42.2976 31.6669 43.3525C30.5618 44.4074 29.0629 45 27.5 45C25.9371 45 24.4382 44.4074 23.3331 43.3525C22.228 42.2976 21.6071 40.8668 21.6071 39.375C21.6071 37.8832 22.228 36.4524 23.3331 35.3975C24.4382 34.3426 25.9371 33.75 27.5 33.75Z" fill="#036280"/>
</svg>
