<svg width="60" height="60" viewBox="0 0 60 60" fill="none" xmlns="http://www.w3.org/2000/svg">
<path d="M3.75 3.75C1.67578 3.75 0 5.42578 0 7.5C0 9.57422 1.67578 11.25 3.75 11.25H56.25C58.3242 11.25 60 9.57422 60 7.5C60 5.42578 58.3242 3.75 56.25 3.75H3.75ZM3.75 48.75C1.67578 48.75 0 50.4258 0 52.5C0 54.5742 1.67578 56.25 3.75 56.25H18.75V41.25C18.75 35.0391 23.7891 30 30 30C36.2109 30 41.25 35.0391 41.25 41.25V56.25H56.25C58.3242 56.25 60 54.5742 60 52.5C60 50.4258 58.3242 48.75 56.25 48.75V15H3.75V48.75Z" fill="#036280"/>
</svg>
